<?xml version="1.0" standalone="no"?>
<!DOCTYPE svg PUBLIC "-//W3C//DTD SVG 20010904//EN"
 "http://www.w3.org/TR/2001/REC-SVG-20010904/DTD/svg10.dtd">
<svg version="1.0" xmlns="http://www.w3.org/2000/svg"
 width="5175.000000pt" height="2333.000000pt" viewBox="0 0 5175.000000 2333.000000"
 preserveAspectRatio="xMidYMid meet">
<metadata>
Created by potrace 1.16, written by Peter Selinger 2001-2019
</metadata>
<g transform="translate(0.000000,2333.000000) scale(0.100000,-0.100000)"
fill="#000000" stroke="none">
<path d="M35428 8438 l-3 -3073 -255 0 -255 0 -3 723 -2 722 -700 0 -700 0 0
-725 0 -725 -265 0 -265 0 0 1565 0 1565 -365 0 -365 0 0 200 0 200 -210 0
-210 0 0 -200 0 -200 -375 0 -375 0 0 -3182 0 -3182 -57 83 c-31 46 -91 120
-132 164 -85 90 -231 218 -242 212 -11 -8 -87 -245 -103 -326 -19 -92 -38
-301 -30 -323 4 -9 -30 3 -93 34 -150 75 -323 127 -510 154 -52 8 -52 6 -23
-132 107 -509 392 -834 858 -978 64 -20 126 -40 137 -44 11 -5 -866 -8 -1949
-7 l-1969 2 -71 82 c-81 94 -109 103 -136 46 -17 -38 -55 -45 -65 -13 -7 21
-46 36 -65 25 -7 -5 -9 -20 -5 -41 3 -19 3 -50 -1 -70 -5 -28 -10 -34 -23 -28
-9 4 -44 11 -79 15 -34 5 -75 16 -90 24 -15 9 -56 54 -91 101 -35 46 -69 84
-75 84 -19 0 -56 -30 -56 -46 0 -8 -10 -14 -25 -14 -15 0 -25 6 -25 15 0 15
-30 35 -53 35 -11 0 -16 -17 -21 -62 -3 -35 -9 -84 -12 -110 l-6 -48 -748 0
c-412 0 -751 3 -753 8 -3 4 -8 57 -12 117 l-7 111 104 13 c145 18 226 46 256
91 33 49 28 146 -8 186 -35 37 -73 54 -120 54 -79 0 -110 -29 -187 -175 l-43
-80 6 60 c17 176 53 327 106 446 l30 67 151 4 c120 3 159 7 185 21 101 54 96
213 -8 268 -75 41 -147 16 -217 -72 -25 -33 -48 -58 -49 -56 -2 2 3 44 12 93
16 88 16 347 0 384 -4 11 11 24 57 49 137 74 198 122 219 169 47 106 -21 212
-137 212 -107 0 -141 -45 -170 -225 l-7 -40 -32 95 c-26 78 -36 94 -51 92 -16
-3 -15 2 8 41 109 185 138 287 102 354 -54 99 -206 103 -266 7 -12 -20 -19
-49 -19 -83 0 -44 10 -71 70 -188 48 -94 67 -140 60 -148 -7 -8 -2 -36 15 -85
14 -40 23 -76 20 -78 -2 -3 -7 2 -11 11 -12 32 -68 57 -127 57 -45 0 -61 -5
-87 -26 -41 -35 -60 -74 -60 -126 0 -52 28 -101 71 -127 30 -19 143 -57 237
-81 l42 -11 0 -83 c0 -143 -35 -295 -102 -445 l-24 -54 -58 83 c-82 116 -122
158 -166 171 -104 31 -209 -54 -197 -159 5 -48 27 -84 71 -116 24 -18 45 -21
177 -25 82 -2 149 -5 149 -8 0 -3 -9 -35 -20 -71 -32 -108 -50 -237 -57 -400
l-6 -153 -31 58 c-17 31 -50 77 -73 101 l-42 44 -65 -4 c-52 -3 -71 -9 -92
-28 -83 -78 -69 -205 27 -253 20 -9 74 -24 120 -33 46 -8 102 -19 124 -23 24
-5 -123 -9 -367 -10 -348 -1 -408 1 -408 13 0 16 14 21 84 31 88 12 126 86 71
140 -45 46 -103 30 -144 -40 -29 -50 18 144 50 207 l19 38 71 0 c61 0 73 3 94
25 71 70 -28 178 -106 116 l-24 -19 1 119 0 119 61 39 c33 21 63 46 66 56 22
55 -14 115 -68 115 -51 0 -66 -9 -85 -54 l-17 -41 -7 33 c-6 27 -11 32 -27 27
-17 -6 -15 2 15 57 44 82 50 111 32 147 -35 67 -137 51 -152 -24 -4 -23 4 -50
35 -110 33 -67 37 -81 25 -88 -9 -5 -13 -16 -9 -28 6 -17 1 -19 -33 -19 -50 0
-82 -32 -82 -82 0 -46 31 -72 112 -96 l58 -17 0 -50 c0 -61 -24 -163 -48 -212
l-19 -36 -21 34 c-35 57 -69 83 -107 83 -47 0 -79 -32 -79 -79 0 -57 28 -77
117 -83 l74 -4 -14 -47 c-8 -25 -17 -92 -20 -149 l-6 -103 -29 35 c-23 28 -37
36 -62 36 -42 0 -73 -23 -81 -60 l-7 -30 -881 2 -880 3 -74 190 c-137 352
-192 473 -244 529 l-47 52 -57 278 -57 277 29 56 c21 42 25 57 15 60 -8 3 -50
33 -93 67 -44 33 -114 85 -156 114 l-77 54 -70 -4 c-54 -3 -88 -12 -143 -37
-63 -29 -76 -40 -106 -90 -105 -170 -194 -355 -252 -521 -19 -52 -46 -124 -60
-159 -18 -42 -31 -102 -40 -180 -11 -90 -94 -520 -130 -669 l-5 -22 -1698 2
-1697 3 0 305 0 305 71 100 c255 358 429 764 496 1155 28 163 30 443 5 605
-63 407 -252 842 -530 1218 l-81 110 -29 -34 c-129 -152 -308 -458 -406 -692
-128 -308 -184 -573 -184 -877 0 -200 18 -341 67 -530 84 -324 275 -712 483
-982 l43 -57 -2 -313 -3 -313 -182 -3 -182 -2 -11 42 c-60 240 -161 545 -241
731 -34 80 -36 87 -18 87 19 0 19 9 17 347 l-3 348 -207 5 -206 5 -104 146
c-282 396 -619 747 -998 1040 -126 97 -220 162 -220 151 0 -5 66 -58 148 -119
370 -277 702 -608 972 -968 53 -71 116 -158 139 -192 l42 -63 -121 0 -120 0 0
75 0 75 -180 0 -180 0 0 -75 0 -75 -321 0 -322 0 -104 -97 c-58 -54 -134 -125
-171 -159 l-66 -60 170 -192 169 -192 323 0 322 0 0 -430 0 -430 -3762 2
-3763 3 -3 301 -2 301 27 39 c163 234 240 362 323 538 148 311 228 617 246
943 l7 123 131 128 c146 143 315 286 484 410 61 45 112 89 112 97 0 8 -4 15
-8 15 -13 0 -268 -195 -387 -295 -61 -51 -163 -143 -226 -204 l-116 -110 -6
77 c-33 415 -242 923 -547 1335 -40 53 -76 97 -79 97 -12 0 -146 -189 -220
-312 -42 -69 -103 -180 -136 -246 l-59 -120 -57 114 c-78 154 -184 328 -282
459 l-81 108 -29 -34 c-46 -55 -211 -306 -267 -409 -139 -251 -242 -534 -291
-794 -26 -140 -37 -449 -20 -592 49 -418 245 -886 532 -1275 l49 -66 0 -317 0
-316 -3260 0 -3260 0 0 -45 0 -45 10025 0 c9931 0 10025 0 10025 -19 0 -25
-49 -63 -126 -97 -44 -20 -86 -28 -169 -35 -153 -13 -175 -17 -175 -35 0 -36
140 -71 510 -129 118 -18 216 -32 218 -31 1 2 11 69 21 149 12 92 25 155 36
171 l17 26 459 0 459 0 10 -26 c6 -15 15 -47 20 -71 10 -42 9 -47 -20 -83 -47
-59 -121 -109 -177 -119 -78 -15 -134 -41 -131 -60 8 -40 130 -51 288 -26 172
28 460 108 460 127 0 20 -48 172 -77 246 -4 9 190 12 951 12 l956 0 4 -22 c17
-91 36 -182 39 -184 2 -2 19 1 38 7 l35 11 -12 62 c-6 33 -14 76 -18 94 l-6
32 418 0 417 0 28 -137 c15 -76 29 -138 30 -140 2 -1 20 3 40 9 27 8 36 16 32
27 -8 27 -45 212 -45 227 0 12 155 14 1015 14 l1015 0 0 -34 c0 -19 5 -38 10
-41 6 -4 45 -3 87 0 62 6 76 11 81 27 3 12 10 17 21 14 9 -3 48 -10 86 -16
140 -20 244 -8 268 31 12 19 136 19 12299 19 l12288 0 0 45 0 45 -3924 0
c-2159 0 -3927 3 -3929 8 -2 4 1 309 7 677 l11 670 170 7 c355 13 629 73 881
192 488 232 781 658 875 1275 26 174 36 496 20 641 -88 775 -691 1788 -1696
2853 -92 98 -171 177 -176 177 -5 0 -69 -62 -143 -137 -231 -239 -436 -472
-638 -726 l-118 -149 0 66 0 66 -190 0 -190 0 0 870 0 870 -265 0 -265 0 0
1340 0 1340 -595 0 -595 0 0 -420 0 -420 -555 0 -555 0 0 675 0 675 -405 0
-405 0 0 -245 0 -245 -1405 0 -1405 0 0 245 0 245 -415 0 -415 0 -2 -3072z
m1582 1582 l0 -190 -445 0 -445 0 0 190 0 190 445 0 445 0 0 -190z m-4520
-3400 l0 -190 -445 0 -445 0 0 190 0 190 445 0 445 0 0 -190z m6420 -545 l0
-185 -445 0 -445 0 0 185 0 185 445 0 445 0 0 -185z m-1900 -2765 l0 -190
-445 0 -445 0 0 190 0 190 445 0 445 0 0 -190z m-2350 -725 l0 -185 -445 0
-445 0 0 185 0 185 445 0 445 0 0 -185z m8542 -150 c134 -44 306 -82 452 -97
l116 -12 0 -41 c0 -62 -60 -1234 -66 -1282 l-5 -43 -305 0 -304 0 0 755 c0
415 2 755 4 755 2 0 51 -16 108 -35z m-36161 -640 c-108 -250 -186 -478 -249
-720 l-29 -110 -86 -3 -87 -3 0 311 0 311 69 97 c93 131 169 259 248 415 l65
131 69 -134 69 -135 -69 -160z m13839 5 c49 -126 97 -229 152 -324 45 -77 94
-167 109 -201 46 -102 119 -286 119 -301 0 -12 -68 -14 -410 -14 -247 0 -410
4 -410 9 0 5 16 65 35 132 41 144 85 352 85 402 0 39 72 207 152 357 66 122
79 143 88 133 4 -4 40 -91 80 -193z m-13699 42 c26 -42 77 -117 113 -167 l66
-90 -2 -310 -3 -310 -282 -3 c-156 -1 -283 1 -283 5 0 21 75 289 114 405 67
203 209 549 225 548 3 -1 27 -35 52 -78z m8801 -147 c84 -204 228 -660 228
-723 0 -10 -93 -12 -447 -10 l-448 3 -3 428 -2 427 311 -2 311 -3 50 -120z"/>
<path d="M9820 7658 c-658 -585 -1055 -941 -1058 -949 -2 -5 710 -9 1690 -9
l1694 0 484 526 c267 290 498 542 513 560 l28 34 -1584 0 -1585 0 -182 -162z"/>
<path d="M12840 6520 l0 -110 135 0 135 0 0 110 0 110 -135 0 -135 0 0 -110z"/>
<path d="M13290 6520 l0 -110 135 0 135 0 0 110 0 110 -135 0 -135 0 0 -110z"/>
<path d="M9130 6140 l0 -270 1295 0 1295 0 0 270 0 270 -1295 0 -1295 0 0
-270z"/>
<path d="M12840 6120 l0 -110 135 0 135 0 0 110 0 110 -135 0 -135 0 0 -110z"/>
<path d="M13290 6120 l0 -110 135 0 135 0 0 110 0 110 -135 0 -135 0 0 -110z"/>
<path d="M12840 5270 l0 -110 135 0 135 0 0 110 0 110 -135 0 -135 0 0 -110z"/>
<path d="M13290 5270 l0 -110 135 0 135 0 0 110 0 110 -135 0 -135 0 0 -110z"/>
<path d="M9130 5070 l0 -270 1295 0 1295 0 0 270 0 270 -1295 0 -1295 0 0
-270z"/>
<path d="M29370 4935 l0 -145 335 0 335 0 0 145 0 145 -335 0 -335 0 0 -145z"/>
<path d="M12840 4865 l0 -115 135 0 135 0 0 115 0 115 -135 0 -135 0 0 -115z"/>
<path d="M13290 4865 l0 -115 135 0 135 0 0 115 0 115 -135 0 -135 0 0 -115z"/>
<path d="M25937 4945 c-126 -44 -156 -193 -57 -283 l31 -28 -28 -60 c-24 -50
-28 -72 -27 -144 0 -72 5 -94 29 -144 50 -106 158 -187 266 -202 44 -6 47 -5
53 21 6 24 2 32 -28 57 -19 16 -38 37 -41 48 -4 11 -14 20 -24 20 -45 0 -55
62 -17 103 l25 27 48 -22 c67 -30 196 -30 273 0 30 12 56 22 58 22 11 0 -2
-104 -18 -135 l-19 -40 21 25 c66 78 94 219 65 321 -43 148 -160 240 -325 256
-62 6 -62 6 -72 43 -26 95 -123 148 -213 115z"/>
<path d="M20605 4836 c-67 -17 -116 -39 -170 -76 -52 -36 -75 -74 -75 -125 0
-24 -11 -52 -35 -86 -41 -60 -42 -72 -14 -100 20 -20 27 -20 142 -13 138 8
160 17 175 72 41 155 71 273 76 305 7 36 6 37 -21 36 -15 0 -50 -6 -78 -13z"/>
<path d="M20811 4779 c-7 -29 -19 -118 -28 -197 -15 -134 -15 -146 0 -172 33
-56 16 -136 -39 -179 l-27 -21 52 -21 c50 -21 73 -52 56 -78 -4 -7 8 -11 33
-11 86 0 151 83 195 248 59 219 26 325 -123 387 -56 24 -69 33 -91 68 l-17 29
-11 -53z"/>
<path d="M9130 3995 l0 -265 1295 0 1295 0 0 265 0 265 -1295 0 -1295 0 0
-265z"/>
<path d="M28100 4065 l0 -145 335 0 335 0 0 145 0 145 -335 0 -335 0 0 -145z"/>
<path d="M12840 4015 l0 -115 135 0 135 0 0 115 0 115 -135 0 -135 0 0 -115z"/>
<path d="M13290 4015 l0 -115 135 0 135 0 0 115 0 115 -135 0 -135 0 0 -115z"/>
<path d="M26210 3945 c-75 -24 -98 -50 -120 -135 -29 -110 -88 -406 -95 -475
-5 -46 -3 -65 9 -80 13 -18 17 -19 38 -6 84 52 115 54 141 10 l17 -31 -37 6
c-21 4 -46 9 -55 12 -16 5 -18 -3 -18 -70 0 -93 -16 -169 -45 -221 -43 -74
-115 -369 -115 -470 l0 -44 66 -21 c208 -64 471 -85 581 -47 28 10 56 24 62
31 8 10 -1 71 -34 230 -38 184 -45 234 -45 332 l0 115 -117 55 c-98 47 -114
57 -97 64 23 9 64 56 64 74 0 7 23 11 64 11 35 0 67 3 71 7 4 3 -3 47 -16 96
l-23 89 24 54 c15 35 23 73 23 109 0 48 -8 70 -62 172 l-62 118 -51 15 c-63
18 -108 18 -168 0z"/>
<path d="M12840 3615 l0 -115 135 0 135 0 0 115 0 115 -135 0 -135 0 0 -115z"/>
<path d="M13290 3615 l0 -115 135 0 135 0 0 115 0 115 -135 0 -135 0 0 -115z"/>
<path d="M20509 3592 l-35 -87 18 -445 c17 -415 17 -469 5 -542 -5 -24 -3 -27
13 -18 22 12 35 30 23 30 -5 0 -15 -6 -22 -12 -12 -11 -12 -9 -6 7 35 85 62
180 51 183 -9 2 -15 94 -24 340 -15 416 -15 480 3 562 7 36 12 66 11 67 -1 2
-18 -36 -37 -85z"/>
<path d="M9130 2920 l0 -270 1295 0 1295 0 0 270 0 270 -1295 0 -1295 0 0
-270z"/>
<path d="M12840 2765 l0 -115 135 0 135 0 0 115 0 115 -135 0 -135 0 0 -115z"/>
<path d="M13290 2765 l0 -115 135 0 135 0 0 115 0 115 -135 0 -135 0 0 -115z"/>
<path d="M12840 2360 l0 -110 135 0 135 0 0 110 0 110 -135 0 -135 0 0 -110z"/>
<path d="M13290 2360 l0 -110 135 0 135 0 0 110 0 110 -135 0 -135 0 0 -110z"/>
<path d="M9130 2050 l0 -110 135 0 135 0 0 110 0 110 -135 0 -135 0 0 -110z"/>
<path d="M9580 2050 l0 -110 130 0 130 0 0 110 0 110 -130 0 -130 0 0 -110z"/>
<path d="M10960 2050 l0 -110 135 0 135 0 0 110 0 110 -135 0 -135 0 0 -110z"/>
<path d="M11410 2050 l0 -110 135 0 135 0 0 110 0 110 -135 0 -135 0 0 -110z"/>
<path d="M9130 1645 l0 -116 133 3 132 3 0 110 0 110 -132 3 -133 3 0 -116z"/>
<path d="M9580 1645 l0 -115 130 0 130 0 0 115 0 115 -130 0 -130 0 0 -115z"/>
<path d="M10964 1747 c-2 -7 -3 -58 -2 -113 l3 -99 133 -3 132 -3 0 116 0 115
-130 0 c-99 0 -132 -3 -136 -13z"/>
<path d="M11410 1645 l0 -115 135 0 135 0 0 115 0 115 -135 0 -135 0 0 -115z"/>
</g>
</svg>
